<svg width="129" height="1024" viewBox="0 0 129 1024" fill="none" xmlns="http://www.w3.org/2000/svg">
<path d="M58.7079 1.5C70.1688 26.1685 75.0805 30.7855 62 58.5C53.5173 76.4729 70.8351 84.662 58.7079 101.792C46.3914 119.189 32.1965 135.317 20.3518 152.845C-1.70108 185.478 2.28018 225.636 2.28018 262.938C2.28018 327.023 0.344807 387.707 20.3518 449.61C31.9135 485.383 40.6656 524.29 60.3675 557.272C63.265 562.123 67.3762 564.565 73.4602 563.524C81.7878 562.098 83.0222 576.553 85.2621 582.278C94.4689 605.81 97.2643 630.671 105.178 654.342C114.053 680.889 125.093 711.367 125.093 739.43C125.093 758.618 130.336 786.174 123.434 804.374C117.03 821.26 112.605 839.957 106.837 857.337C102.399 870.711 95.2199 880.381 95.2199 894.324C95.2199 910.742 82.9554 929.814 79.3611 947.113C71.307 985.878 57.9038 984.414 45.4308 1022" stroke="#CA893D" stroke-width="3" stroke-linecap="round"/>
</svg>
